<mxfile host="app.diagrams.net" modified="2021-11-05T18:30:24.322Z" agent="5.0 (Macintosh; Intel Mac OS X 10_15_7) AppleWebKit/537.36 (KHTML, like Gecko) Chrome/92.0.4515.159 Safari/537.36" etag="dNrvW22NcG6m4Jys2mhX" version="15.7.0" type="github">
  <diagram name="Page-1" id="e7e014a7-5840-1c2e-5031-d8a46d1fe8dd">
    <mxGraphModel dx="946" dy="517" grid="1" gridSize="10" guides="1" tooltips="1" connect="1" arrows="1" fold="1" page="1" pageScale="1" pageWidth="1169" pageHeight="826" background="none" math="0" shadow="0">
      <root>
        <mxCell id="0" />
        <mxCell id="1" parent="0" />
        <mxCell id="9PcHhgzpNe-4Txz34fOE-64" value="" style="edgeStyle=orthogonalEdgeStyle;rounded=0;orthogonalLoop=1;jettySize=auto;html=1;" edge="1" parent="1" source="9PcHhgzpNe-4Txz34fOE-41" target="9PcHhgzpNe-4Txz34fOE-42">
          <mxGeometry relative="1" as="geometry" />
        </mxCell>
        <mxCell id="9PcHhgzpNe-4Txz34fOE-41" value="&lt;div style=&quot;background-color: rgb(255 , 255 , 255) ; font-family: &amp;#34;menlo&amp;#34; , &amp;#34;monaco&amp;#34; , &amp;#34;courier new&amp;#34; , monospace ; line-height: 18px&quot;&gt;刷新前的准备工作&lt;/div&gt;" style="rounded=0;whiteSpace=wrap;html=1;" vertex="1" parent="1">
          <mxGeometry x="230" y="280" width="140" height="60" as="geometry" />
        </mxCell>
        <mxCell id="9PcHhgzpNe-4Txz34fOE-55" style="edgeStyle=orthogonalEdgeStyle;rounded=0;orthogonalLoop=1;jettySize=auto;html=1;exitX=0.5;exitY=1;exitDx=0;exitDy=0;entryX=0.5;entryY=1;entryDx=0;entryDy=0;fillColor=#6a00ff;strokeColor=#3700CC;" edge="1" parent="1" source="9PcHhgzpNe-4Txz34fOE-42" target="9PcHhgzpNe-4Txz34fOE-45">
          <mxGeometry relative="1" as="geometry" />
        </mxCell>
        <mxCell id="9PcHhgzpNe-4Txz34fOE-42" value="&lt;div style=&quot;background-color: rgb(255 , 255 , 255) ; font-family: &amp;#34;menlo&amp;#34; , &amp;#34;monaco&amp;#34; , &amp;#34;courier new&amp;#34; , monospace ; line-height: 18px&quot;&gt;创建IOC容器，&lt;/div&gt;&lt;div style=&quot;background-color: rgb(255 , 255 , 255) ; line-height: 18px&quot;&gt;&lt;font face=&quot;menlo, monaco, courier new, monospace&quot;&gt;加载和注册BeanDefinition对象&lt;/font&gt;&lt;br&gt;&lt;/div&gt;" style="rounded=0;whiteSpace=wrap;html=1;" vertex="1" parent="1">
          <mxGeometry x="230" y="450" width="140" height="60" as="geometry" />
        </mxCell>
        <mxCell id="9PcHhgzpNe-4Txz34fOE-56" style="edgeStyle=orthogonalEdgeStyle;rounded=0;orthogonalLoop=1;jettySize=auto;html=1;entryX=0.5;entryY=1;entryDx=0;entryDy=0;" edge="1" parent="1" source="9PcHhgzpNe-4Txz34fOE-45" target="9PcHhgzpNe-4Txz34fOE-46">
          <mxGeometry relative="1" as="geometry" />
        </mxCell>
        <mxCell id="9PcHhgzpNe-4Txz34fOE-45" value="&lt;div style=&quot;background-color: rgb(255 , 255 , 255) ; line-height: 18px&quot;&gt;&lt;font face=&quot;menlo, monaco, courier new, monospace&quot;&gt;对容器进行一些预处理&lt;/font&gt;&lt;br&gt;&lt;/div&gt;" style="rounded=0;whiteSpace=wrap;html=1;" vertex="1" parent="1">
          <mxGeometry x="480" y="570" width="140" height="60" as="geometry" />
        </mxCell>
        <mxCell id="9PcHhgzpNe-4Txz34fOE-57" style="edgeStyle=orthogonalEdgeStyle;rounded=0;orthogonalLoop=1;jettySize=auto;html=1;entryX=0.5;entryY=1;entryDx=0;entryDy=0;" edge="1" parent="1" source="9PcHhgzpNe-4Txz34fOE-46" target="9PcHhgzpNe-4Txz34fOE-47">
          <mxGeometry relative="1" as="geometry">
            <Array as="points">
              <mxPoint x="550" y="420" />
              <mxPoint x="550" y="420" />
            </Array>
          </mxGeometry>
        </mxCell>
        <mxCell id="9PcHhgzpNe-4Txz34fOE-46" value="&lt;div style=&quot;background-color: rgb(255 , 255 , 255) ; line-height: 18px&quot;&gt;&lt;font face=&quot;menlo, monaco, courier new, monospace&quot;&gt;调用BeanFactoryPostProcessor后置处理器&lt;/font&gt;&lt;br&gt;&lt;/div&gt;" style="rounded=0;whiteSpace=wrap;html=1;" vertex="1" parent="1">
          <mxGeometry x="480" y="400" width="140" height="60" as="geometry" />
        </mxCell>
        <mxCell id="9PcHhgzpNe-4Txz34fOE-58" style="edgeStyle=orthogonalEdgeStyle;rounded=0;orthogonalLoop=1;jettySize=auto;html=1;entryX=0.5;entryY=0;entryDx=0;entryDy=0;exitX=0.5;exitY=0;exitDx=0;exitDy=0;fillColor=#6a00ff;strokeColor=#3700CC;" edge="1" parent="1" source="9PcHhgzpNe-4Txz34fOE-47" target="9PcHhgzpNe-4Txz34fOE-48">
          <mxGeometry relative="1" as="geometry" />
        </mxCell>
        <mxCell id="9PcHhgzpNe-4Txz34fOE-47" value="&lt;div style=&quot;background-color: rgb(255 , 255 , 255) ; line-height: 18px&quot;&gt;&lt;font face=&quot;menlo, monaco, courier new, monospace&quot;&gt;注册BeanPostProcessor后置处理器&lt;/font&gt;&lt;br&gt;&lt;/div&gt;" style="rounded=0;whiteSpace=wrap;html=1;" vertex="1" parent="1">
          <mxGeometry x="480" y="240" width="140" height="60" as="geometry" />
        </mxCell>
        <mxCell id="9PcHhgzpNe-4Txz34fOE-59" style="edgeStyle=orthogonalEdgeStyle;rounded=0;orthogonalLoop=1;jettySize=auto;html=1;" edge="1" parent="1" source="9PcHhgzpNe-4Txz34fOE-48" target="9PcHhgzpNe-4Txz34fOE-49">
          <mxGeometry relative="1" as="geometry" />
        </mxCell>
        <mxCell id="9PcHhgzpNe-4Txz34fOE-48" value="&lt;div style=&quot;background-color: rgb(255 , 255 , 255) ; line-height: 18px&quot;&gt;&lt;font face=&quot;menlo, monaco, courier new, monospace&quot;&gt;初始化应用事件多播器&lt;/font&gt;&lt;br&gt;&lt;/div&gt;" style="rounded=0;whiteSpace=wrap;html=1;" vertex="1" parent="1">
          <mxGeometry x="710" y="160" width="140" height="60" as="geometry" />
        </mxCell>
        <mxCell id="9PcHhgzpNe-4Txz34fOE-60" style="edgeStyle=orthogonalEdgeStyle;rounded=0;orthogonalLoop=1;jettySize=auto;html=1;entryX=0.5;entryY=0;entryDx=0;entryDy=0;" edge="1" parent="1" source="9PcHhgzpNe-4Txz34fOE-49" target="9PcHhgzpNe-4Txz34fOE-50">
          <mxGeometry relative="1" as="geometry" />
        </mxCell>
        <mxCell id="9PcHhgzpNe-4Txz34fOE-49" value="&lt;div style=&quot;background-color: rgb(255 , 255 , 255) ; line-height: 18px&quot;&gt;&lt;div style=&quot;line-height: 18px&quot;&gt;onRefresh()&lt;/div&gt;&lt;div style=&quot;line-height: 18px&quot;&gt;具体的子类初始化一些特殊的bean&lt;/div&gt;&lt;/div&gt;" style="rounded=0;whiteSpace=wrap;html=1;" vertex="1" parent="1">
          <mxGeometry x="710" y="270" width="140" height="60" as="geometry" />
        </mxCell>
        <mxCell id="9PcHhgzpNe-4Txz34fOE-61" style="edgeStyle=orthogonalEdgeStyle;rounded=0;orthogonalLoop=1;jettySize=auto;html=1;entryX=0.5;entryY=0;entryDx=0;entryDy=0;" edge="1" parent="1" source="9PcHhgzpNe-4Txz34fOE-50" target="9PcHhgzpNe-4Txz34fOE-51">
          <mxGeometry relative="1" as="geometry" />
        </mxCell>
        <mxCell id="9PcHhgzpNe-4Txz34fOE-50" value="&lt;div style=&quot;background-color: rgb(255 , 255 , 255) ; line-height: 18px&quot;&gt;注册一些监听器&lt;br&gt;&lt;/div&gt;" style="rounded=0;whiteSpace=wrap;html=1;" vertex="1" parent="1">
          <mxGeometry x="710" y="380" width="140" height="60" as="geometry" />
        </mxCell>
        <mxCell id="9PcHhgzpNe-4Txz34fOE-62" style="edgeStyle=orthogonalEdgeStyle;rounded=0;orthogonalLoop=1;jettySize=auto;html=1;entryX=0.5;entryY=0;entryDx=0;entryDy=0;" edge="1" parent="1" source="9PcHhgzpNe-4Txz34fOE-51" target="9PcHhgzpNe-4Txz34fOE-52">
          <mxGeometry relative="1" as="geometry" />
        </mxCell>
        <mxCell id="9PcHhgzpNe-4Txz34fOE-51" value="&lt;div style=&quot;background-color: rgb(255 , 255 , 255) ; line-height: 18px&quot;&gt;&lt;div style=&quot;line-height: 18px&quot;&gt;实例化剩余的单例bean(非懒加载方式)。&lt;/div&gt;&lt;div style=&quot;line-height: 18px&quot;&gt;Bean的IoC、DI和AOP都是发生在此步骤。&amp;nbsp;&lt;/div&gt;&lt;/div&gt;" style="rounded=0;whiteSpace=wrap;html=1;" vertex="1" parent="1">
          <mxGeometry x="710" y="490" width="140" height="60" as="geometry" />
        </mxCell>
        <mxCell id="9PcHhgzpNe-4Txz34fOE-52" value="&lt;div style=&quot;background-color: rgb(255 , 255 , 255) ; line-height: 18px&quot;&gt;&lt;font face=&quot;menlo, monaco, courier new, monospace&quot;&gt;发布容器刷新事件&lt;/font&gt;&lt;br&gt;&lt;/div&gt;" style="rounded=0;whiteSpace=wrap;html=1;" vertex="1" parent="1">
          <mxGeometry x="710" y="600" width="140" height="60" as="geometry" />
        </mxCell>
        <mxCell id="9PcHhgzpNe-4Txz34fOE-65" value="创建容器" style="swimlane;fontColor=#33FF33;fillColor=#FF6666;" vertex="1" parent="1">
          <mxGeometry x="200" y="80" width="200" height="620" as="geometry" />
        </mxCell>
        <mxCell id="9PcHhgzpNe-4Txz34fOE-67" value="后置处理" style="swimlane;fillColor=#FF6666;fontColor=#33FF33;" vertex="1" parent="1">
          <mxGeometry x="440" y="80" width="200" height="620" as="geometry" />
        </mxCell>
        <mxCell id="9PcHhgzpNe-4Txz34fOE-68" value="Vertical Container" style="swimlane;" vertex="1" parent="1">
          <mxGeometry x="670" y="80" width="200" height="620" as="geometry" />
        </mxCell>
      </root>
    </mxGraphModel>
  </diagram>
</mxfile>
